<svg width="128" height="128" viewBox="0 0 128 128" fill="none" xmlns="http://www.w3.org/2000/svg">
<path d="M128 0H0V128H128V0Z" fill="#E11F26"/>
<path d="M55.9508 92.1429C55.5192 92.1401 55.091 92.0663 54.6834 91.9244C54.1874 91.757 53.7292 91.4932 53.3354 91.1483C52.9415 90.8033 52.6196 90.384 52.3881 89.9144C52.1567 89.4448 52.0203 88.934 51.9867 88.4115C51.9531 87.8891 52.0231 87.3651 52.1925 86.8697L68.2161 38.7987C68.3826 38.2994 68.6457 37.8378 68.9905 37.4402C69.3354 37.0426 69.7551 36.7168 70.2258 36.4814C70.6966 36.2461 71.2091 36.1057 71.734 36.0684C72.259 36.0311 72.7862 36.0976 73.2855 36.264C73.7847 36.4304 74.2464 36.6936 74.6439 37.0384C75.0415 37.3832 75.3673 37.803 75.6027 38.2737C75.838 38.7444 75.9784 39.2569 76.0157 39.7819C76.053 40.3069 75.9865 40.834 75.8201 41.3333L59.7964 89.4043C59.5281 90.2093 59.011 90.9082 58.3199 91.4003C57.6288 91.8925 56.7992 92.1525 55.9508 92.1429V92.1429Z" fill="white"/>
<path d="M31.9447 92.1429C31.513 92.1415 31.0846 92.0676 30.6774 91.9244C30.1787 91.7599 29.7175 91.4983 29.3205 91.1546C28.9234 90.811 28.5984 90.3921 28.3641 89.9221C28.1298 89.4522 27.9909 88.9405 27.9554 88.4166C27.9199 87.8927 27.9885 87.3669 28.1573 86.8697L44.1809 38.7987C44.5171 37.7903 45.24 36.9568 46.1906 36.4814C46.6614 36.2461 47.1739 36.1057 47.6988 36.0684C48.2238 36.0311 48.751 36.0976 49.2503 36.264C49.7495 36.4304 50.2111 36.6936 50.6087 37.0384C51.0063 37.3832 51.3321 37.803 51.5675 38.2737C51.8028 38.7444 51.9432 39.2569 51.9805 39.7819C52.0178 40.3069 51.9513 40.834 51.7849 41.3333L35.7612 89.4043C35.4925 90.2033 34.9794 90.8976 34.2945 91.389C33.6096 91.8804 32.7876 92.1442 31.9447 92.1429V92.1429Z" fill="white"/>
<path d="M79.9574 92.1429C79.5258 92.14 79.0976 92.0662 78.6901 91.9244C78.1925 91.7582 77.7326 91.4956 77.3366 91.1516C76.9406 90.8076 76.6163 90.3888 76.3822 89.9194C76.1482 89.4499 76.0089 88.9389 75.9725 88.4156C75.9361 87.8923 76.0032 87.367 76.17 86.8696L92.1936 38.7986C92.3393 38.2753 92.5898 37.787 92.9301 37.3635C93.2703 36.9401 93.6931 36.5902 94.1728 36.3353C94.6525 36.0803 95.179 35.9256 95.7204 35.8805C96.2617 35.8354 96.8066 35.9009 97.3219 36.073C97.8371 36.2451 98.312 36.5202 98.7176 36.8815C99.1232 37.2429 99.4511 37.6829 99.6813 38.175C99.9115 38.667 100.039 39.2007 100.057 39.7437C100.074 40.2866 99.9811 40.8274 99.783 41.3333L83.7594 89.4043C83.4933 90.2021 82.9829 90.8959 82.3005 91.3874C81.6181 91.8789 80.7984 92.1432 79.9574 92.1429V92.1429Z" fill="white"/>
</svg>
