<svg
  viewBox="0 0 143 24"
  width="134px"
  height="22px"
  className="MuiSvgIcon-root"
  {...props}>
  {/*Box*/}
  <path d="M24 0H0V24H24V0Z" fill="#E11F26" />

  {/*Stripes*/}
  <path
    d="M10.5029 17.2564C10.3838 17.2563 10.2665 17.2278 10.1605 17.1735C10.0545 17.1191 9.96298 17.0404 9.89335 16.9438C9.82373 16.8472 9.77801 16.7354 9.75997 16.6177C9.74193 16.5 9.75207 16.3797 9.78957 16.2667L12.7971 7.24404C12.8283 7.15037 12.8777 7.06376 12.9424 6.98917C13.0071 6.91458 13.0859 6.85346 13.1742 6.80932C13.2626 6.76517 13.3587 6.73885 13.4572 6.73186C13.5557 6.72488 13.6547 6.73736 13.7483 6.76861C13.842 6.79985 13.9286 6.84923 14.0032 6.91394C14.0778 6.97865 14.1389 7.05742 14.1831 7.14575C14.2272 7.23408 14.2535 7.33024 14.2605 7.42874C14.2675 7.52725 14.255 7.62616 14.2238 7.71983L11.2162 16.7425C11.1663 16.8922 11.0705 17.0223 10.9425 17.1146C10.8145 17.2068 10.6607 17.2565 10.5029 17.2564Z"
    fill="white"
  />
  <path
    d="M5.99161 17.2564C5.87252 17.2563 5.75518 17.2278 5.64921 17.1735C5.54325 17.1191 5.45169 17.0404 5.38206 16.9438C5.31243 16.8472 5.26672 16.7354 5.24868 16.6177C5.23064 16.5 5.24078 16.3797 5.27828 16.2667L8.28583 7.24404C8.31707 7.15037 8.36646 7.06376 8.43117 6.98917C8.49588 6.91458 8.57465 6.85346 8.66298 6.80932C8.75131 6.76517 8.84747 6.73885 8.94597 6.73186C9.04447 6.72488 9.14338 6.73736 9.23706 6.76861C9.33074 6.79985 9.41734 6.84923 9.49193 6.91394C9.56652 6.97865 9.62764 7.05742 9.67179 7.14575C9.71594 7.23408 9.74225 7.33024 9.74924 7.42874C9.75622 7.52725 9.74374 7.62616 9.7125 7.71983L6.70497 16.7425C6.65503 16.8922 6.55927 17.0223 6.43124 17.1146C6.30322 17.2068 6.14941 17.2565 5.99161 17.2564Z"
    fill="white"
  />
  <path
    d="M15.0143 17.2564C14.8952 17.2563 14.7778 17.2278 14.6719 17.1735C14.5659 17.1191 14.4743 17.0404 14.4047 16.9438C14.3351 16.8472 14.2894 16.7354 14.2713 16.6177C14.2533 16.5 14.2634 16.3797 14.3009 16.2667L17.3084 7.24403C17.3724 7.05596 17.5082 6.90085 17.6862 6.81258C17.8641 6.7243 18.0698 6.71003 18.2583 6.77288C18.4467 6.83572 18.6026 6.97058 18.692 7.148C18.7813 7.32543 18.7968 7.53099 18.7351 7.71982L15.7276 16.7425C15.6777 16.8921 15.5819 17.0223 15.4539 17.1146C15.3258 17.2068 15.1721 17.2564 15.0143 17.2564Z"
    fill="white"
  />

  {/*Words*/}
  <path
    d="M121.07 6.76392C119.841 6.76509 118.774 7.06461 118.08 7.7184V7.51503C118.079 7.31641 117.999 7.12633 117.858 6.9863C117.717 6.84628 117.527 6.76769 117.328 6.76769C117.129 6.76769 116.939 6.84628 116.798 6.9863C116.657 7.12633 116.577 7.31641 116.576 7.51503V16.5409C116.577 16.7395 116.657 16.9296 116.798 17.0696C116.939 17.2097 117.129 17.2883 117.328 17.2883C117.527 17.2883 117.717 17.2097 117.858 17.0696C117.999 16.9296 118.079 16.7395 118.08 16.5409V11.5631C118.08 9.33085 118.82 8.27054 121.05 8.26761C121.246 8.25942 121.432 8.17915 121.573 8.04217C121.713 7.90519 121.798 7.72114 121.812 7.52532C121.813 7.42648 121.795 7.32827 121.759 7.23637C121.723 7.14447 121.668 7.0607 121.599 6.9899C121.53 6.9191 121.448 6.86268 121.357 6.82389C121.266 6.7851 121.168 6.76472 121.07 6.76392Z"
    fill="#0a3049"
  />
  <path
    d="M38.553 17.2928C38.3988 17.2928 38.2484 17.2453 38.1221 17.1569C37.9958 17.0686 37.8997 16.9435 37.8468 16.7987L35.2717 9.74276L32.7578 16.7935C32.7199 16.9482 32.6273 17.084 32.4972 17.1758C32.367 17.2676 32.208 17.3091 32.0496 17.2928C31.8954 17.2928 31.745 17.2453 31.6187 17.1569C31.4924 17.0686 31.3963 16.9435 31.3434 16.7987L28.0507 7.77647C28.0167 7.68367 28.0012 7.58506 28.0053 7.4863C28.0094 7.38753 28.033 7.29055 28.0746 7.20089C28.1162 7.11123 28.1751 7.03066 28.2479 6.96379C28.3207 6.89692 28.406 6.84505 28.4989 6.81117C28.5917 6.77729 28.6904 6.76205 28.7891 6.76633C28.8879 6.77061 28.9848 6.79432 29.0744 6.8361C29.164 6.87788 29.2444 6.93692 29.3112 7.00984C29.3779 7.08276 29.4296 7.16812 29.4634 7.26104L32.0416 14.3251L34.5265 7.35586C34.5539 7.23237 34.612 7.11778 34.6954 7.0227C34.7788 6.92762 34.8849 6.85513 35.0038 6.81194C35.1227 6.76875 35.2505 6.75626 35.3755 6.77561C35.5005 6.79497 35.6186 6.84556 35.7189 6.92269C35.8459 7.02055 35.9388 7.15593 35.9844 7.3096L38.545 14.3252L41.0606 7.27002C41.0938 7.17702 41.1449 7.09147 41.2112 7.01824C41.2774 6.94502 41.3574 6.88555 41.4466 6.84325C41.5358 6.80094 41.6325 6.77662 41.7311 6.77168C41.8297 6.76673 41.9283 6.78126 42.0213 6.81443C42.1143 6.84759 42.1999 6.89875 42.2731 6.96499C42.3463 7.03122 42.4058 7.11122 42.4481 7.20043C42.4904 7.28965 42.5147 7.38632 42.5197 7.48493C42.5246 7.58354 42.5101 7.68216 42.4769 7.77515L39.2614 16.7937C39.2187 16.9457 39.1249 17.0783 38.9959 17.1692C38.8669 17.2601 38.7105 17.3038 38.553 17.2928Z"
    fill="#0a3049"
  />
  <path
    d="M49.4924 6.76319C48.442 6.72516 47.4125 7.064 46.59 7.7185V3.00393C46.5888 2.80531 46.5091 2.61523 46.3682 2.47521C46.2273 2.33519 46.0368 2.25659 45.8382 2.25659C45.6395 2.25659 45.449 2.33519 45.3081 2.47521C45.1672 2.61523 45.0875 2.80531 45.0863 3.00393V16.5409C45.0875 16.7396 45.1672 16.9296 45.3081 17.0697C45.449 17.2097 45.6395 17.2883 45.8382 17.2883C46.0368 17.2883 46.2273 17.2097 46.3682 17.0697C46.5091 16.9296 46.5888 16.7396 46.59 16.5409V10.9439C46.5922 10.67 46.694 8.26683 49.4924 8.26683C51.9804 8.26683 52.0758 10.6083 52.0784 10.8719V16.5408C52.0784 16.7402 52.1576 16.9314 52.2986 17.0724C52.4396 17.2134 52.6308 17.2926 52.8302 17.2926C53.0296 17.2926 53.2209 17.2134 53.3619 17.0724C53.5029 16.9314 53.5821 16.7402 53.5821 16.5408V10.8719C53.5821 9.45049 52.7275 6.76319 49.4924 6.76319Z"
    fill="#0a3049"
  />
  <path
    d="M73.7634 15.7891C72.4936 15.7891 71.9987 15.2318 71.9987 13.8008V8.2669H73.7634C73.9628 8.2669 74.154 8.18769 74.295 8.04669C74.436 7.90569 74.5152 7.71446 74.5152 7.51505C74.5152 7.31565 74.436 7.12442 74.295 6.98342C74.154 6.84242 73.9628 6.76321 73.7634 6.76321H71.9987V5.12514C71.9987 4.92574 71.9195 4.7345 71.7785 4.5935C71.6375 4.45251 71.4462 4.37329 71.2468 4.37329C71.0474 4.37329 70.8562 4.45251 70.7152 4.5935C70.5742 4.7345 70.495 4.92574 70.495 5.12514V6.76321H69.3191C69.1197 6.76321 68.9285 6.84242 68.7875 6.98342C68.6465 7.12442 68.5673 7.31565 68.5673 7.51505C68.5673 7.71446 68.6465 7.90569 68.7875 8.04669C68.9285 8.18769 69.1197 8.2669 69.3191 8.2669H70.495V13.8008C70.495 16.8392 72.5427 17.2928 73.7633 17.2928C73.9627 17.2928 74.1539 17.2136 74.2949 17.0726C74.4359 16.9316 74.5151 16.7403 74.5151 16.5409C74.5151 16.3415 74.4359 16.1503 74.2949 16.0093C74.1539 15.8683 73.9627 15.7891 73.7633 15.7891H73.7634Z"
    fill="#0a3049"
  />
  <path
    d="M81.0129 17.6474C80.0152 17.6444 79.0552 17.2655 78.3242 16.5864C77.5933 15.9072 77.1451 14.9776 77.069 13.9827C77.0555 13.7843 77.1211 13.5885 77.2515 13.4384C77.3819 13.2882 77.5665 13.1958 77.7649 13.1814C77.9633 13.1671 78.1593 13.2319 78.31 13.3617C78.4607 13.4915 78.5539 13.6757 78.569 13.8741C78.6042 14.3497 78.7775 14.8048 79.0675 15.1834C79.3576 15.5621 79.7518 15.8478 80.2019 16.0057C80.652 16.1635 81.1384 16.1866 81.6014 16.0721C82.0644 15.9575 82.4839 15.7104 82.8085 15.3609C83.1331 15.0114 83.3486 14.5748 83.4287 14.1046C83.5087 13.6344 83.4498 13.1511 83.2592 12.7138C83.0686 12.2766 82.7545 11.9045 82.3555 11.6432C81.9565 11.3819 81.4899 11.2427 81.0129 11.2427C80.9142 11.2427 80.8164 11.2232 80.7252 11.1855C80.634 11.1477 80.5511 11.0923 80.4813 11.0225C80.4115 10.9527 80.3561 10.8698 80.3183 10.7786C80.2805 10.6873 80.2611 10.5896 80.2611 10.4908C80.2611 10.3921 80.2805 10.2943 80.3183 10.2031C80.3561 10.1119 80.4115 10.029 80.4813 9.95921C80.5511 9.88939 80.634 9.83401 80.7252 9.79623C80.8164 9.75844 80.9142 9.739 81.0129 9.739C81.4056 9.73905 81.7898 9.62449 82.1184 9.40937C82.447 9.19426 82.7056 8.88793 82.8626 8.52796C83.0196 8.16799 83.0681 7.77002 83.0023 7.38287C82.9364 6.99572 82.759 6.6362 82.4917 6.34842C82.2245 6.06063 81.8791 5.85709 81.4979 5.76274C81.1167 5.6684 80.7162 5.68735 80.3456 5.81729C79.975 5.94722 79.6504 6.18248 79.4116 6.49423C79.1727 6.80597 79.03 7.18063 79.001 7.57228C78.9859 7.77066 78.8928 7.95496 78.7421 8.08482C78.5914 8.21469 78.3953 8.27953 78.1969 8.26516C77.9985 8.25078 77.8138 8.15836 77.6834 8.00812C77.5529 7.85789 77.4874 7.66209 77.501 7.46361C77.5433 6.88253 77.7291 6.32101 78.0417 5.82938C78.3543 5.33776 78.7841 4.93137 79.2924 4.64666C79.8007 4.36194 80.3717 4.20779 80.9542 4.19801C81.5368 4.18823 82.1126 4.32313 82.6302 4.59062C83.1478 4.85812 83.5909 5.24984 83.9199 5.7307C84.2488 6.21156 84.4533 6.76652 84.5151 7.34586C84.5769 7.92519 84.4939 8.5108 84.2737 9.05019C84.0535 9.58959 83.7029 10.0659 83.2533 10.4365C83.9486 10.9145 84.4727 11.6024 84.749 12.3996C85.0254 13.1968 85.0394 14.0614 84.789 14.8672C84.5387 15.6729 84.0371 16.3774 83.3577 16.8776C82.6782 17.3779 81.8566 17.6476 81.0128 17.6474L81.0129 17.6474Z"
    fill="#0a3049"
  />
  <path
    d="M97.7745 17.2928C97.6203 17.2927 97.4699 17.2453 97.3436 17.1569C97.2173 17.0685 97.1212 16.9434 97.0683 16.7986L94.4929 9.74271L91.9792 16.7935C91.9272 16.9391 91.8316 17.0651 91.7054 17.1545C91.5792 17.2438 91.4286 17.2921 91.274 17.2928H91.2711C91.1169 17.2927 90.9665 17.2453 90.8402 17.1569C90.7138 17.0685 90.6177 16.9435 90.5648 16.7987L87.2719 7.77644C87.204 7.58921 87.2131 7.38267 87.2973 7.20216C87.3815 7.02165 87.5339 6.88193 87.721 6.81365C87.9081 6.74538 88.1146 6.75415 88.2953 6.83802C88.476 6.92189 88.6159 7.07402 88.6846 7.26101L91.2628 14.325L93.7476 7.3558C93.775 7.23232 93.8331 7.11773 93.9165 7.02266C94 6.92758 94.106 6.8551 94.2249 6.81191C94.3438 6.76872 94.4717 6.75622 94.5967 6.77558C94.7216 6.79493 94.8397 6.84551 94.94 6.92263C95.067 7.02049 95.1599 7.15587 95.2055 7.30955L97.7662 14.3252L100.282 7.26996C100.315 7.17697 100.366 7.09141 100.432 7.01819C100.499 6.94496 100.579 6.8855 100.668 6.84319C100.757 6.80089 100.854 6.77657 100.952 6.77162C101.051 6.76668 101.149 6.7812 101.242 6.81437C101.335 6.84754 101.421 6.8987 101.494 6.96493C101.567 7.03116 101.627 7.11117 101.669 7.20038C101.712 7.28959 101.736 7.38626 101.741 7.48487C101.746 7.58349 101.731 7.6821 101.698 7.7751L98.4828 16.7937C98.4308 16.9392 98.3352 17.0653 98.209 17.1546C98.0829 17.2439 97.9322 17.2922 97.7776 17.2929L97.7745 17.2928Z"
    fill="#0a3049"
  />
  <path
    d="M108.707 17.2928C107.666 17.2928 106.648 16.9841 105.783 16.4058C104.917 15.8275 104.243 15.0055 103.844 14.0438C103.446 13.0822 103.342 12.024 103.545 11.003C103.748 9.98213 104.249 9.04436 104.985 8.30832C105.721 7.57229 106.659 7.07104 107.68 6.86797C108.701 6.6649 109.759 6.76913 110.721 7.16747C111.682 7.56581 112.504 8.24038 113.083 9.10587C113.661 9.97136 113.97 10.9889 113.97 12.0298C113.968 13.4251 113.413 14.7628 112.426 15.7495C111.44 16.7361 110.102 17.2911 108.707 17.2928ZM108.707 8.27054C107.963 8.27054 107.236 8.49102 106.618 8.90409C106 9.31717 105.518 9.90428 105.233 10.5912C104.949 11.2781 104.874 12.034 105.02 12.7632C105.165 13.4924 105.523 14.1623 106.048 14.688C106.574 15.2137 107.244 15.5718 107.973 15.7168C108.702 15.8619 109.458 15.7874 110.145 15.5029C110.832 15.2184 111.419 14.7365 111.832 14.1183C112.245 13.5001 112.466 12.7733 112.466 12.0298C112.465 11.0332 112.068 10.0777 111.363 9.37292C110.659 8.66818 109.703 8.27173 108.707 8.27054Z"
    fill="#0a3049"
  />
  <path
    d="M132.54 2.25208C132.442 2.25205 132.344 2.27147 132.253 2.30925C132.161 2.34702 132.078 2.4024 132.009 2.47222C131.939 2.54204 131.883 2.62494 131.846 2.71617C131.808 2.8074 131.788 2.90518 131.788 3.00392V8.28185C131.335 7.80577 130.79 7.42616 130.187 7.16582C129.583 6.90548 128.933 6.76978 128.276 6.76685C125.51 6.76685 123.26 9.12814 123.26 12.0298C123.26 14.9315 125.51 17.2928 128.276 17.2928C128.933 17.2898 129.583 17.1541 130.187 16.8938C130.79 16.6335 131.335 16.2539 131.788 15.7778V16.5409C131.79 16.7395 131.869 16.9296 132.01 17.0696C132.151 17.2097 132.342 17.2883 132.54 17.2883C132.739 17.2883 132.929 17.2097 133.07 17.0696C133.211 16.9296 133.291 16.7395 133.292 16.5409V3.00392C133.292 2.90518 133.273 2.8074 133.235 2.71617C133.197 2.62494 133.142 2.54205 133.072 2.47223C133.002 2.40241 132.919 2.34703 132.828 2.30925C132.737 2.27148 132.639 2.25205 132.54 2.25208ZM128.276 15.7891C126.339 15.7891 124.763 14.1026 124.763 12.0298C124.763 9.95707 126.339 8.27055 128.276 8.27055C130.213 8.27055 131.788 9.95709 131.788 12.0298C131.788 14.1025 130.213 15.7891 128.276 15.7891Z"
    fill="#0a3049"
  />
  <path
    d="M65.2198 6.76685C65.121 6.76682 65.0233 6.78625 64.932 6.82402C64.8408 6.86179 64.7579 6.91717 64.6881 6.98699C64.6183 7.05681 64.5629 7.13971 64.5251 7.23094C64.4873 7.32217 64.4679 7.41995 64.4679 7.51869V8.29195C64.0141 7.81274 63.4679 7.43053 62.8622 7.16841C62.2565 6.9063 61.6039 6.76973 60.944 6.76696C58.1782 6.76696 55.9277 9.12824 55.9277 12.0299C55.9277 14.9316 58.1782 17.2929 60.944 17.2929C61.6039 17.2901 62.2565 17.1535 62.8622 16.8914C63.4679 16.6293 64.0141 16.2471 64.4679 15.7679C64.4679 15.7679 64.5239 15.6286 64.4679 16.541C64.4691 16.7396 64.5489 16.9297 64.6897 17.0697C64.8306 17.2098 65.0212 17.2884 65.2198 17.2884C65.4184 17.2884 65.609 17.2098 65.7498 17.0697C65.8907 16.9297 65.9704 16.7396 65.9716 16.541V7.51869C65.9717 7.41995 65.9522 7.32217 65.9145 7.23095C65.8767 7.13972 65.8213 7.05682 65.7515 6.987C65.6817 6.91718 65.5988 6.8618 65.5075 6.82403C65.4163 6.78625 65.3185 6.76682 65.2198 6.76685ZM60.944 15.7891C59.0071 15.7891 57.4314 14.1026 57.4314 12.0298C57.4314 9.95706 59.0071 8.27054 60.944 8.27054C62.8809 8.27054 64.4562 9.95709 64.4562 12.0298C64.4562 14.1025 62.8805 15.7891 60.944 15.7891Z"
    fill="#0a3049"
  />
  <path
    d="M139.541 17.2858C137.975 17.2858 136.683 16.6117 135.997 15.4362C135.899 15.2681 135.865 15.0699 135.902 14.8786C135.939 14.6873 136.044 14.516 136.198 14.3966C136.272 14.3435 136.357 14.307 136.447 14.2894C136.537 14.2719 136.629 14.2738 136.718 14.2949C136.807 14.3161 136.89 14.356 136.962 14.412C137.034 14.4681 137.093 14.5389 137.136 14.6198C137.402 15.016 137.762 15.3408 138.183 15.5657C138.604 15.7907 139.073 15.9089 139.551 15.91C140.807 15.91 141.607 15.3801 141.607 14.5342C141.607 13.6857 140.683 13.3306 139.283 12.6866C137.706 11.9612 136.174 11.4504 136.145 9.54096C136.126 8.26561 137.433 6.88909 139.427 6.76942C140.652 6.69378 141.855 7.17502 142.493 7.85828C142.626 8.00123 142.703 8.18668 142.711 8.38139C142.719 8.57609 142.658 8.7673 142.537 8.92072C142.482 8.99253 142.411 9.05147 142.33 9.09352C142.249 9.13557 142.161 9.15975 142.07 9.16443C141.979 9.1691 141.888 9.15416 141.803 9.12061C141.719 9.08706 141.642 9.03569 141.579 8.96999C140.026 7.51516 137.517 8.20199 137.517 9.54104C137.517 10.3547 138.663 10.8057 139.8 11.3159C140.909 11.8137 143 12.5979 143 14.5344C143 15.7842 141.91 17.2858 139.541 17.2858Z"
    fill="#0a3049"
  />
</svg>