<?xml version="1.0" encoding="utf-8"?>
<!-- Generator: Adobe Illustrator 25.3.0, SVG Export Plug-In . SVG Version: 6.00 Build 0)  -->
<svg version="1.1" id="what3words" xmlns="http://www.w3.org/2000/svg" xmlns:xlink="http://www.w3.org/1999/xlink" x="0px" y="0px"
	 viewBox="0 0 20 20" style="enable-background:new 0 0 20 20;" xml:space="preserve">
<path d="M16.9,2H3.1C2.5,2,2,2.5,2,3.1v13.7C2,17.5,2.5,18,3.1,18h13.7c0.6,0,1.1-0.5,1.1-1.1V3.1C18,2.5,17.5,2,16.9,2z M5.8,13.5
	c-0.3-0.1-0.5-0.4-0.4-0.7l2-6c0.1-0.3,0.4-0.5,0.7-0.4c0.3,0.1,0.5,0.4,0.4,0.7c0,0,0,0,0,0l-2,6C6.4,13.5,6.1,13.6,5.8,13.5z
	 M8.8,13.5c-0.3-0.1-0.5-0.4-0.4-0.7l2-6c0.1-0.3,0.4-0.5,0.7-0.4c0.3,0.1,0.5,0.4,0.4,0.7c0,0,0,0,0,0l-2,6
	C9.4,13.5,9.1,13.6,8.8,13.5L8.8,13.5z M14.6,7.2l-2,6c-0.1,0.3-0.4,0.5-0.7,0.4c-0.3-0.1-0.5-0.4-0.4-0.7c0,0,0,0,0,0l2-6
	c0.1-0.3,0.4-0.5,0.7-0.4C14.5,6.6,14.7,6.9,14.6,7.2C14.6,7.2,14.6,7.2,14.6,7.2z"/>
</svg>
